<svg xmlns="http://www.w3.org/2000/svg" width="96" height="96" viewBox="0 0 96 96" role="img" aria-label="ПЛ — фирменный знак Павла Леонтьева">
  <defs>
    <linearGradient id="gold" x1="18" y1="12" x2="78" y2="86" gradientUnits="userSpaceOnUse">
      <stop offset="0" stop-color="#fff2b8"/>
      <stop offset="0.34" stop-color="#d9b25f"/>
      <stop offset="0.68" stop-color="#9f7026"/>
      <stop offset="1" stop-color="#f0d889"/>
    </linearGradient>
    <linearGradient id="goldSoft" x1="28" y1="18" x2="72" y2="78" gradientUnits="userSpaceOnUse">
      <stop offset="0" stop-color="#fff7c8"/>
      <stop offset="1" stop-color="#c08b35"/>
    </linearGradient>
    <radialGradient id="bg" cx="50%" cy="35%" r="70%">
      <stop offset="0" stop-color="#132033"/>
      <stop offset="1" stop-color="#07101b"/>
    </radialGradient>
    <filter id="shadow" x="-20%" y="-20%" width="140%" height="140%">
      <feDropShadow dx="0" dy="8" stdDeviation="8" flood-color="#000" flood-opacity="0.38"/>
    </filter>
  </defs>

  <rect x="5" y="5" width="86" height="86" rx="22" fill="url(#bg)" stroke="url(#gold)" stroke-width="2.4"/>
  <path d="M18 72 C27 81 40 86 48 86 C56 86 69 81 78 72" fill="none" stroke="url(#gold)" stroke-width="1.4" opacity="0.52"/>
  <path d="M18 24 C27 15 40 10 48 10 C56 10 69 15 78 24" fill="none" stroke="url(#gold)" stroke-width="1.4" opacity="0.42"/>

  <g filter="url(#shadow)">
    <path d="M42 68 V34 H33 V68 H26 V26 H49 V68 Z" fill="url(#gold)"/>
    <path d="M52 68 V26 H75 V34 H60 V68 Z" fill="url(#gold)"/>
    <path d="M37 68 V48 L44 42 V68 Z" fill="#07101b" opacity="0.72"/>
    <path d="M45 68 V39 L52 31 V68 Z" fill="#07101b" opacity="0.72"/>
    <path d="M53 68 V45 L60 39 V68 Z" fill="#07101b" opacity="0.72"/>
    <path d="M38 67 V49 L44 44 V67 M46 67 V40 L52 34 V67 M54 67 V46 L60 41 V67" fill="none" stroke="url(#goldSoft)" stroke-width="1.4" opacity="0.95"/>
  </g>

  <path d="M24 74 H72" stroke="url(#gold)" stroke-width="1.6" stroke-linecap="round" opacity="0.78"/>
</svg>
