<svg width="96" height="96" viewBox="0 0 96 96" fill="none" xmlns="http://www.w3.org/2000/svg" role="img" aria-labelledby="title desc">
  <title id="title">Монограмма ПЛ</title>
  <desc id="desc">Золотой фирменный знак Павла Леонтьева</desc>
  <defs>
    <linearGradient id="gold" x1="18" y1="14" x2="78" y2="84" gradientUnits="userSpaceOnUse">
      <stop stop-color="#F4D98D"/>
      <stop offset="0.48" stop-color="#C99A44"/>
      <stop offset="1" stop-color="#8E6725"/>
    </linearGradient>
  </defs>
  <rect x="6" y="6" width="84" height="84" rx="28" stroke="url(#gold)" stroke-width="3"/>
  <path d="M28 68V28h16c8 0 13 5 13 13v27h-8V42c0-4-2-6-6-6h-7v32h-8Z" fill="url(#gold)"/>
  <path d="M56 68V48h8v12h12v8H56Z" fill="url(#gold)"/>
  <path d="M47 68V57l21-21h8L55 57v11h-8Z" fill="url(#gold)" opacity=".92"/>
  <path d="M38 68V52h4v16h-4Zm8 0V43h4v25h-4Zm8 0V35h4v33h-4Z" fill="#F2D78A" opacity=".58"/>
</svg>
