<svg xmlns="http://www.w3.org/2000/svg" width="96" height="96" viewBox="0 0 96 96" role="img" aria-label="ПЛ — Павел Леонтьев">
  <defs>
    <linearGradient id="gold" x1="18" y1="12" x2="78" y2="86" gradientUnits="userSpaceOnUse">
      <stop offset="0" stop-color="#fff3b8"/>
      <stop offset="0.32" stop-color="#e0b95f"/>
      <stop offset="0.66" stop-color="#a9782c"/>
      <stop offset="1" stop-color="#f4dc8e"/>
    </linearGradient>
    <linearGradient id="goldDark" x1="24" y1="24" x2="72" y2="74" gradientUnits="userSpaceOnUse">
      <stop offset="0" stop-color="#f5d879"/>
      <stop offset="1" stop-color="#b7822d"/>
    </linearGradient>
    <radialGradient id="bg" cx="50%" cy="35%" r="70%">
      <stop offset="0" stop-color="#132033"/>
      <stop offset="1" stop-color="#07101b"/>
    </radialGradient>
    <filter id="shadow" x="-20%" y="-20%" width="140%" height="140%">
      <feDropShadow dx="0" dy="7" stdDeviation="7" flood-color="#000" flood-opacity="0.38"/>
    </filter>
  </defs>

  <rect x="5" y="5" width="86" height="86" rx="22" fill="url(#bg)" stroke="url(#gold)" stroke-width="2.6"/>
  <path d="M18 72 C27 81 39 85 48 85 C57 85 69 81 78 72" fill="none" stroke="url(#gold)" stroke-width="1.35" opacity="0.50"/>
  <path d="M18 24 C27 15 39 11 48 11 C57 11 69 15 78 24" fill="none" stroke="url(#gold)" stroke-width="1.35" opacity="0.38"/>

  <g filter="url(#shadow)" fill="url(#gold)">
    <!-- Чёткая кириллица: П -->
    <path d="M22 66 V29 H50 V66 H43 V36 H29 V66 Z"/>
    <!-- Чёткая кириллица: Л -->
    <path d="M51 66 L62 29 H72 L83 66 H75 L67 39 H66 L58 66 Z"/>
  </g>

  <g opacity="0.72" stroke="url(#goldDark)" stroke-width="1.4" stroke-linecap="round">
    <path d="M35 66 V48 L42 42 V66"/>
    <path d="M44 66 V45 L51 38 V66"/>
    <path d="M53 66 V52 L59 46 V66"/>
  </g>

  <text x="48" y="80" text-anchor="middle" fill="url(#gold)" font-family="Arial, Helvetica, sans-serif" font-size="8" font-weight="800" letter-spacing="2.6">ПАВЕЛ</text>
</svg>
