<svg width="96" height="96" viewBox="0 0 96 96" fill="none" xmlns="http://www.w3.org/2000/svg" role="img" aria-labelledby="title desc">
  <title id="title">Монограмма ПЛ</title>
  <desc id="desc">Фирменный золотой знак Павла Леонтьева</desc>
  <defs>
    <linearGradient id="gold" x1="19" y1="14" x2="78" y2="82" gradientUnits="userSpaceOnUse">
      <stop stop-color="#F8E3A4"/>
      <stop offset="0.44" stop-color="#D1A24B"/>
      <stop offset="1" stop-color="#8A6425"/>
    </linearGradient>
    <linearGradient id="softGold" x1="34" y1="22" x2="69" y2="72" gradientUnits="userSpaceOnUse">
      <stop stop-color="#FFF1BA"/>
      <stop offset="1" stop-color="#B98531"/>
    </linearGradient>
    <filter id="glow" x="-20%" y="-20%" width="140%" height="140%" color-interpolation-filters="sRGB">
      <feDropShadow dx="0" dy="5" stdDeviation="5" flood-color="#D6A84F" flood-opacity="0.18"/>
    </filter>
  </defs>

  <rect x="1" y="1" width="94" height="94" rx="22" fill="#07111D"/>
  <rect x="1.5" y="1.5" width="93" height="93" rx="22" stroke="url(#gold)" stroke-opacity="0.42"/>

  <path d="M17 67C9 55.5 9 40.5 17 29" stroke="url(#gold)" stroke-width="2.2" stroke-linecap="round" opacity="0.78"/>
  <path d="M79 29C87 40.5 87 55.5 79 67" stroke="url(#gold)" stroke-width="2.2" stroke-linecap="round" opacity="0.78"/>

  <g filter="url(#glow)">
    <path d="M27 70V24H60V34H39V70H27Z" fill="url(#gold)"/>
    <path d="M58 70V44H68V60H80V70H58Z" fill="url(#gold)"/>
    <path d="M43 70L56 28H66L52 70H43Z" fill="url(#softGold)"/>
  </g>

  <path d="M43 70V51L50 44V70" stroke="#F7D989" stroke-width="1.8" stroke-linecap="round" opacity="0.72"/>
  <path d="M52 70V40L59 32V70" stroke="#F7D989" stroke-width="1.8" stroke-linecap="round" opacity="0.68"/>
  <path d="M35 24H62" stroke="#FFF0B6" stroke-width="1.4" stroke-linecap="round" opacity="0.52"/>
  <path d="M59 44H69" stroke="#FFF0B6" stroke-width="1.2" stroke-linecap="round" opacity="0.46"/>
</svg>
