<svg xmlns="http://www.w3.org/2000/svg" width="1120" height="630" viewBox="0 0 1120 630" role="img" aria-label="Премиальный тёмный постер с архитектурными линиями">
  <defs>
    <linearGradient id="bg" x1="0" y1="0" x2="1" y2="1">
      <stop offset="0" stop-color="#071018"/>
      <stop offset="0.48" stop-color="#101b27"/>
      <stop offset="1" stop-color="#172637"/>
    </linearGradient>
    <radialGradient id="goldGlow" cx="52%" cy="47%" r="42%">
      <stop offset="0" stop-color="#e5c981" stop-opacity="0.34"/>
      <stop offset="0.34" stop-color="#b88a3a" stop-opacity="0.12"/>
      <stop offset="1" stop-color="#081018" stop-opacity="0"/>
    </radialGradient>
    <radialGradient id="blueGlow" cx="82%" cy="18%" r="55%">
      <stop offset="0" stop-color="#31577a" stop-opacity="0.38"/>
      <stop offset="1" stop-color="#081018" stop-opacity="0"/>
    </radialGradient>
    <linearGradient id="lineGold" x1="0" y1="0" x2="1" y2="0">
      <stop offset="0" stop-color="#e5c981" stop-opacity="0"/>
      <stop offset="0.5" stop-color="#e5c981" stop-opacity="0.72"/>
      <stop offset="1" stop-color="#e5c981" stop-opacity="0"/>
    </linearGradient>
    <filter id="soft" x="-20%" y="-20%" width="140%" height="140%">
      <feGaussianBlur stdDeviation="10"/>
    </filter>
  </defs>
  <rect width="1120" height="630" fill="url(#bg)"/>
  <rect width="1120" height="630" fill="url(#blueGlow)"/>
  <rect width="1120" height="630" fill="url(#goldGlow)"/>
  <g opacity="0.22" stroke="#e5c981" stroke-width="1">
    <path d="M54 540 L336 118"/>
    <path d="M154 588 L454 96"/>
    <path d="M692 86 L1004 548"/>
    <path d="M760 36 L1060 416"/>
    <path d="M74 112 H1048 V558 H74 Z" fill="none" opacity="0.54"/>
    <path d="M226 144 H356" opacity="0.7"/>
    <path d="M788 492 H936" opacity="0.58"/>
    <path d="M828 128 L1014 314" opacity="0.55"/>
  </g>
  <g opacity="0.12" stroke="#f7f0e3" stroke-width="1">
    <path d="M0 330 H1120"/>
    <path d="M210 0 V630"/>
    <path d="M512 0 V630"/>
    <path d="M812 0 V630"/>
    <path d="M0 150 H1120"/>
    <path d="M0 490 H1120"/>
  </g>
  <g opacity="0.24" fill="none" stroke="#e5c981">
    <circle cx="560" cy="315" r="134" stroke-opacity="0.22"/>
    <circle cx="560" cy="315" r="91" stroke-opacity="0.36"/>
    <circle cx="560" cy="315" r="58" stroke-opacity="0.28"/>
  </g>
  <ellipse cx="560" cy="318" rx="145" ry="96" fill="#e5c981" opacity="0.08" filter="url(#soft)"/>
  <path d="M352 314 H496" stroke="url(#lineGold)" stroke-width="2" opacity="0.8"/>
  <path d="M624 314 H768" stroke="url(#lineGold)" stroke-width="2" opacity="0.8"/>
  <g opacity="0.08" fill="#ffffff">
    <rect x="116" y="458" width="180" height="8" rx="4"/>
    <rect x="116" y="482" width="256" height="8" rx="4"/>
    <rect x="760" y="164" width="230" height="8" rx="4"/>
    <rect x="760" y="188" width="150" height="8" rx="4"/>
  </g>
  <rect x="1" y="1" width="1118" height="628" fill="none" stroke="#e5c981" stroke-opacity="0.18" stroke-width="2"/>
</svg>
